<svg xmlns="http://www.w3.org/2000/svg" xmlns:xlink="http://www.w3.org/1999/xlink" width="2050" zoomAndPan="magnify" viewBox="0 0 1537.5 299.999988" height="400" preserveAspectRatio="xMidYMid meet" version="1.0"><defs><g/></defs><g fill="#000000" fill-opacity="1"><g transform="translate(321.401832, 228.677756)"><g><path d="M 70.578125 -38.453125 C 65.703125 -38.453125 62.101562 -38.578125 59.78125 -38.828125 L 42.796875 0.25 C 38.328125 1.320312 32.207031 1.859375 24.4375 1.859375 C 15.832031 1.859375 9.007812 0.867188 3.96875 -1.109375 L 2.859375 -3.21875 L 87.578125 -183.953125 C 94.679688 -185.023438 102.90625 -185.5625 112.25 -185.5625 C 122.832031 -185.5625 131.144531 -184.941406 137.1875 -183.703125 L 169.9375 -2.734375 C 163.238281 0.742188 155.960938 2.484375 148.109375 2.484375 C 138.753906 2.484375 132.421875 0.851562 129.109375 -2.40625 C 125.804688 -5.675781 123.414062 -11.863281 121.9375 -20.96875 L 119.328125 -38.828125 C 117.015625 -38.578125 113.5 -38.453125 108.78125 -38.453125 Z M 74.421875 -72.4375 L 85.34375 -72.6875 L 105.0625 -72.6875 C 105.882812 -72.6875 107.410156 -72.644531 109.640625 -72.5625 C 111.878906 -72.476562 113.535156 -72.4375 114.609375 -72.4375 L 112.375 -89.1875 C 110.226562 -104.238281 107.875 -122.71875 105.3125 -144.625 L 103.703125 -144.625 C 101.210938 -136.851562 94.515625 -119.695312 83.609375 -93.15625 Z M 74.421875 -72.4375 "/></g></g><g transform="translate(493.072044, 228.677756)"><g><path d="M 6.453125 -9.171875 C 7.273438 -13.804688 9.195312 -18.914062 12.21875 -24.5 C 15.238281 -30.082031 18.484375 -34.484375 21.953125 -37.703125 C 35.347656 -30.179688 47.335938 -26.421875 57.921875 -26.421875 C 62.972656 -26.421875 66.941406 -27.265625 69.828125 -28.953125 C 72.722656 -30.648438 74.378906 -32.945312 74.796875 -35.84375 C 74.878906 -36.34375 74.921875 -36.800781 74.921875 -37.21875 C 74.921875 -41.925781 71.320312 -45.476562 64.125 -47.875 L 50.109375 -53.578125 C 31.085938 -60.941406 21.578125 -72.4375 21.578125 -88.0625 C 21.578125 -89.96875 21.742188 -91.953125 22.078125 -94.015625 C 23.984375 -107.660156 30.207031 -118.472656 40.75 -126.453125 C 51.289062 -134.429688 64.582031 -138.421875 80.625 -138.421875 C 88.476562 -138.421875 97.015625 -137.304688 106.234375 -135.078125 C 115.453125 -132.847656 122.914062 -130.203125 128.625 -127.140625 C 128.21875 -122.097656 126.441406 -116.554688 123.296875 -110.515625 C 120.148438 -104.484375 116.675781 -100.226562 112.875 -97.75 C 98.738281 -104.601562 86.664062 -108.03125 76.65625 -108.03125 C 73.019531 -108.03125 70.144531 -107.203125 68.03125 -105.546875 C 65.925781 -103.898438 64.707031 -101.835938 64.375 -99.359375 C 64.289062 -99.023438 64.25 -98.691406 64.25 -98.359375 C 64.25 -94.554688 67.226562 -91.5 73.1875 -89.1875 L 89.0625 -83.234375 C 109.238281 -75.785156 119.328125 -63.546875 119.328125 -46.515625 C 119.328125 -44.367188 119.160156 -42.132812 118.828125 -39.8125 C 116.921875 -26.332031 110.46875 -15.644531 99.46875 -7.75 C 88.476562 0.144531 73.800781 4.09375 55.4375 4.09375 C 37.164062 4.09375 20.835938 -0.328125 6.453125 -9.171875 Z M 6.453125 -9.171875 "/></g></g><g transform="translate(612.273687, 228.677756)"><g><path d="M 79.140625 -103.453125 L 64.5 0 C 61.4375 0.582031 58.109375 0.992188 54.515625 1.234375 C 50.921875 1.484375 47.21875 1.609375 43.40625 1.609375 C 39.6875 1.609375 35.988281 1.484375 32.3125 1.234375 C 28.632812 0.992188 25.304688 0.582031 22.328125 0 L 34.984375 -89.1875 C 35.148438 -90.675781 35.234375 -92.039062 35.234375 -93.28125 C 35.234375 -100.882812 31.632812 -104.6875 24.4375 -104.6875 L 20.34375 -104.6875 C 20.09375 -106.09375 19.96875 -107.75 19.96875 -109.65625 C 19.96875 -112.300781 20.21875 -115.441406 20.71875 -119.078125 C 21.539062 -124.953125 22.78125 -129.953125 24.4375 -134.078125 C 29.144531 -134.410156 33.503906 -134.722656 37.515625 -135.015625 C 41.523438 -135.304688 45.144531 -135.453125 48.375 -135.453125 L 54.328125 -135.453125 C 63.503906 -135.453125 70.285156 -132.597656 74.671875 -126.890625 C 77.984375 -122.421875 79.640625 -116.796875 79.640625 -110.015625 C 79.640625 -107.953125 79.472656 -105.765625 79.140625 -103.453125 Z M 44.03125 -188.53125 C 49.570312 -191.34375 56.476562 -192.75 64.75 -192.75 C 73.1875 -192.75 79.550781 -191.34375 83.84375 -188.53125 C 84.84375 -185.394531 85.34375 -182.128906 85.34375 -178.734375 C 85.34375 -176.835938 85.175781 -174.894531 84.84375 -172.90625 C 84.09375 -167.28125 82.316406 -162.070312 79.515625 -157.28125 C 73.890625 -154.550781 66.859375 -153.1875 58.421875 -153.1875 C 49.984375 -153.1875 43.738281 -154.550781 39.6875 -157.28125 C 38.613281 -160.507812 38.078125 -163.941406 38.078125 -167.578125 C 38.078125 -169.316406 38.203125 -171.09375 38.453125 -172.90625 C 39.273438 -178.445312 41.132812 -183.65625 44.03125 -188.53125 Z M 44.03125 -188.53125 "/></g></g><g transform="translate(692.527031, 228.677756)"><g><path d="M 99.359375 -81 C 99.609375 -83.0625 99.734375 -84.921875 99.734375 -86.578125 C 99.734375 -94.929688 96.382812 -99.109375 89.6875 -99.109375 C 86.789062 -99.109375 83.769531 -98.257812 80.625 -96.5625 C 77.476562 -94.863281 74.171875 -92.648438 70.703125 -89.921875 L 58.046875 0 C 54.910156 0.582031 51.519531 0.992188 47.875 1.234375 C 44.238281 1.484375 40.519531 1.609375 36.71875 1.609375 C 33 1.609375 29.359375 1.484375 25.796875 1.234375 C 22.242188 0.992188 18.976562 0.582031 16 0 L 34.859375 -134.328125 L 36.96875 -136.1875 L 52.59375 -136.1875 C 64.082031 -136.1875 70.820312 -130.566406 72.8125 -119.328125 C 87.28125 -130.984375 100.507812 -136.8125 112.5 -136.8125 C 127.050781 -136.8125 136.6875 -130.609375 141.40625 -118.203125 C 157.113281 -130.609375 171.253906 -136.8125 183.828125 -136.8125 C 196.390625 -136.8125 205.238281 -132.925781 210.375 -125.15625 C 214.09375 -119.28125 215.953125 -112.003906 215.953125 -103.328125 C 215.953125 -100.429688 215.742188 -97.328125 215.328125 -94.015625 L 206.765625 -33.609375 C 206.273438 -29.972656 206.03125 -26.582031 206.03125 -23.4375 C 206.03125 -16.65625 207.269531 -11.160156 209.75 -6.953125 C 202.144531 -0.910156 193.585938 2.109375 184.078125 2.109375 C 174.734375 2.109375 168.65625 -0.0390625 165.84375 -4.34375 C 163.769531 -7.320312 162.734375 -11.414062 162.734375 -16.625 C 162.734375 -18.851562 162.941406 -21.289062 163.359375 -23.9375 L 171.421875 -81.375 C 171.671875 -83.269531 171.796875 -85.046875 171.796875 -86.703125 C 171.796875 -94.972656 168.28125 -99.109375 161.25 -99.109375 C 156.039062 -99.109375 149.878906 -95.96875 142.765625 -89.6875 L 130.109375 0 C 127.054688 0.582031 123.707031 0.992188 120.0625 1.234375 C 116.425781 1.484375 112.707031 1.609375 108.90625 1.609375 C 105.1875 1.609375 101.503906 1.484375 97.859375 1.234375 C 94.222656 0.992188 90.914062 0.582031 87.9375 0 Z M 99.359375 -81 "/></g></g><g transform="translate(909.967697, 228.677756)"><g><path d="M 130.359375 -122.546875 C 138.878906 -112.628906 143.140625 -99.484375 143.140625 -83.109375 C 143.140625 -78.066406 142.726562 -72.734375 141.90625 -67.109375 C 140.414062 -56.273438 137.664062 -46.472656 133.65625 -37.703125 C 129.644531 -28.941406 124.554688 -21.457031 118.390625 -15.25 C 112.234375 -9.050781 105.039062 -4.273438 96.8125 -0.921875 C 88.582031 2.421875 79.425781 4.09375 69.34375 4.09375 C 59.332031 4.09375 50.75 2.378906 43.59375 -1.046875 C 36.445312 -4.484375 30.660156 -9.300781 26.234375 -15.5 C 21.804688 -21.707031 18.890625 -29.191406 17.484375 -37.953125 C 16.742188 -42.253906 16.375 -46.800781 16.375 -51.59375 C 16.375 -56.5625 16.742188 -61.734375 17.484375 -67.109375 C 18.972656 -77.859375 21.679688 -87.570312 25.609375 -96.25 C 29.535156 -104.9375 34.535156 -112.421875 40.609375 -118.703125 C 46.691406 -124.984375 53.847656 -129.835938 62.078125 -133.265625 C 70.304688 -136.703125 79.425781 -138.421875 89.4375 -138.421875 C 107.207031 -138.421875 120.847656 -133.128906 130.359375 -122.546875 Z M 85.21875 -106.921875 C 81.332031 -106.921875 78.046875 -105.96875 75.359375 -104.0625 C 72.671875 -102.164062 70.375 -99.601562 68.46875 -96.375 C 66.5625 -93.15625 65.03125 -89.4375 63.875 -85.21875 C 62.71875 -81 61.8125 -76.453125 61.15625 -71.578125 C 60.070312 -64.046875 59.410156 -57.550781 59.171875 -52.09375 C 59.085938 -50.6875 59.046875 -49.320312 59.046875 -48 C 59.046875 -44.28125 59.332031 -41.097656 59.90625 -38.453125 C 60.738281 -34.734375 62.226562 -31.960938 64.375 -30.140625 C 66.519531 -28.316406 69.582031 -27.40625 73.5625 -27.40625 C 81.5 -27.40625 87.203125 -30.878906 90.671875 -37.828125 C 94.140625 -44.773438 96.742188 -54.617188 98.484375 -67.359375 C 99.472656 -74.378906 99.96875 -80.457031 99.96875 -85.59375 C 99.96875 -89.96875 99.640625 -93.726562 98.984375 -96.875 C 97.410156 -103.570312 92.820312 -106.921875 85.21875 -106.921875 Z M 85.21875 -106.921875 "/></g></g><g transform="translate(1050.628118, 228.677756)"><g><path d="M 71.578125 -32 L 109.28125 -134.078125 C 114.488281 -135.160156 120.234375 -135.703125 126.515625 -135.703125 C 134.210938 -135.703125 140.828125 -134.625 146.359375 -132.46875 L 147.359375 -130.609375 C 119.660156 -63.796875 101.054688 -20.257812 91.546875 0 C 82.273438 1.070312 72.597656 1.609375 62.515625 1.609375 C 52.347656 1.609375 45.296875 0.222656 41.359375 -2.546875 C 37.429688 -5.316406 34.890625 -10.671875 33.734375 -18.609375 L 17.125 -131.109375 C 26.382812 -134.910156 34.445312 -136.8125 41.3125 -136.8125 C 48.082031 -136.8125 53.160156 -135.320312 56.546875 -132.34375 C 59.941406 -129.375 62.015625 -124.289062 62.765625 -117.09375 L 67.84375 -66.734375 C 68.257812 -63.335938 68.71875 -52.503906 69.21875 -34.234375 C 69.21875 -32.742188 70.003906 -32 71.578125 -32 Z M 71.578125 -32 "/></g></g><g transform="translate(1179.876933, 228.677756)"><g/></g><g transform="translate(1250.455221, 228.677756)"><g><path d="M 70.578125 -38.453125 C 65.703125 -38.453125 62.101562 -38.578125 59.78125 -38.828125 L 42.796875 0.25 C 38.328125 1.320312 32.207031 1.859375 24.4375 1.859375 C 15.832031 1.859375 9.007812 0.867188 3.96875 -1.109375 L 2.859375 -3.21875 L 87.578125 -183.953125 C 94.679688 -185.023438 102.90625 -185.5625 112.25 -185.5625 C 122.832031 -185.5625 131.144531 -184.941406 137.1875 -183.703125 L 169.9375 -2.734375 C 163.238281 0.742188 155.960938 2.484375 148.109375 2.484375 C 138.753906 2.484375 132.421875 0.851562 129.109375 -2.40625 C 125.804688 -5.675781 123.414062 -11.863281 121.9375 -20.96875 L 119.328125 -38.828125 C 117.015625 -38.578125 113.5 -38.453125 108.78125 -38.453125 Z M 74.421875 -72.4375 L 85.34375 -72.6875 L 105.0625 -72.6875 C 105.882812 -72.6875 107.410156 -72.644531 109.640625 -72.5625 C 111.878906 -72.476562 113.535156 -72.4375 114.609375 -72.4375 L 112.375 -89.1875 C 110.226562 -104.238281 107.875 -122.71875 105.3125 -144.625 L 103.703125 -144.625 C 101.210938 -136.851562 94.515625 -119.695312 83.609375 -93.15625 Z M 74.421875 -72.4375 "/></g></g><g transform="translate(1422.125433, 228.677756)"><g><path d="M 20.96875 0 L 46.765625 -183.953125 C 52.472656 -185.023438 59.75 -185.5625 68.59375 -185.5625 C 77.351562 -185.5625 84.546875 -185.023438 90.171875 -183.953125 L 64.375 0 C 58.414062 1.070312 51.054688 1.609375 42.296875 1.609375 C 33.453125 1.609375 26.34375 1.070312 20.96875 0 Z M 20.96875 0 "/></g></g></g><path fill="#fcea2b" d="M 74.539062 173.082031 L 48.839844 187.265625 L 51.878906 151.695312 L 18.277344 146.855469 L 43.429688 124.050781 L 19.089844 100.378906 L 52.855469 96.726562 L 47.050781 63.261719 L 76.519531 80.164062 L 91.496094 49.675781 L 105.394531 80.664062 L 135.433594 64.808594 L 128.492188 98.046875 L 165.523438 105.589844 L 138.015625 127.941406 L 162.488281 152.257812 L 128.644531 155.074219 L 133.621094 188.671875 L 104.574219 171.085938 L 85.167969 202.582031 Z M 74.539062 173.082031 " fill-opacity="1" fill-rule="nonzero"/><path fill="#ffffff" d="M 105.394531 164.828125 C 105.261719 166.320312 104.050781 167.53125 102.550781 167.691406 C 84.378906 169.636719 70.402344 187.53125 70.402344 209.308594 C 70.402344 232.390625 86.410156 251.097656 106.152344 251.097656 L 242.445312 251.097656 C 264.136719 251.097656 281.71875 231.328125 281.71875 206.9375 C 281.71875 183.5625 265.570312 164.429688 245.132812 162.875 C 243.570312 162.757812 242.300781 161.664062 242.003906 160.132812 C 237.4375 136.6875 216.375 119.070312 191.476562 119.070312 C 175.292969 119.070312 160.878906 126.394531 151.515625 138.050781 C 150.601562 139.191406 149.066406 139.710938 147.714844 139.144531 C 144.113281 137.632812 140.308594 136.902344 136.054688 136.902344 C 119.96875 136.902344 106.765625 149.179688 105.394531 164.828125 Z M 105.394531 164.828125 " fill-opacity="1" fill-rule="nonzero"/><path stroke-linecap="round" transform="matrix(4.166666, 0, 0, 4.166666, 0, 0.0487586)" fill="none" stroke-linejoin="round" d="M 14.291251 42.413927 L 11.091564 44.210177 L 12.757501 36.233927 L 4.693125 35.071426 L 10.728751 29.598301 L 4.888125 23.91705 L 12.991876 23.040488 L 11.597814 15.008924 L 18.670314 19.066425 L 22.265627 11.748299 L 25.601253 19.185487 L 32.809691 15.381112 L 31.143753 23.357363 L 39.208129 24.518925 L 36.284066 26.902051 " stroke="#000000" stroke-width="1.9" stroke-opacity="1" stroke-miterlimit="10"/><path stroke-linecap="round" transform="matrix(4.166666, 0, 0, 4.166666, 0, 0.0487586)" fill="none" stroke-linejoin="round" d="M 17.281877 39.517052 C 13.665001 37.777052 11.168439 34.077676 11.168439 29.795176 C 11.168439 23.840175 15.995627 19.012987 21.950627 19.012987 C 27.54094 19.012987 32.137503 23.267363 32.679378 28.714238 " stroke="#000000" stroke-width="1.9" stroke-opacity="1" stroke-miterlimit="10"/><path stroke-linecap="round" transform="matrix(4.166666, 0, 0, 4.166666, 0, 0.0487586)" fill="none" stroke-linejoin="round" d="M 25.29469 39.547052 C 25.262815 39.905177 24.97219 40.195802 24.61219 40.234239 C 20.25094 40.701114 16.896564 44.995802 16.896564 50.222365 C 16.896564 55.762053 20.73844 60.251741 25.476565 60.251741 L 58.186881 60.251741 C 63.392819 60.251741 67.612507 55.507053 67.612507 49.653303 C 67.612507 44.043302 63.736881 39.451427 58.831881 39.078302 C 58.456881 39.050177 58.152193 38.787677 58.080943 38.420177 C 56.985006 32.793301 51.930005 28.565176 45.95438 28.565176 C 42.070317 28.565176 38.610941 30.322988 36.363754 33.120489 C 36.144379 33.394239 35.775941 33.518926 35.451566 33.382989 C 34.587191 33.020176 33.674066 32.844864 32.653128 32.844864 C 28.792503 32.844864 25.623753 35.791426 25.29469 39.547052 Z M 25.29469 39.547052 " stroke="#000000" stroke-width="2" stroke-opacity="1" stroke-miterlimit="10"/></svg>